<svg id="Layer_3" data-name="Layer 3" xmlns="http://www.w3.org/2000/svg" viewBox="0 0 160.51 140.2"><defs><style>.cls-1{font-size:55.22px;font-family:Kessel205W00-Bold;font-weight:700;}.cls-1,.cls-6{fill:#00aaac;}.cls-2{letter-spacing:-0.03em;}.cls-3{letter-spacing:-0.04em;}.cls-4{letter-spacing:-0.02em;}.cls-5{fill:#72cbcd;}</style></defs><title>E-Vote 3</title><text class="cls-1" transform="translate(0 129.6) scale(0.96 1)"><tspan class="cls-2">e</tspan><tspan class="cls-3" x="37.5" y="0">v</tspan><tspan x="70.58" y="0">o</tspan><tspan class="cls-4" x="109.95" y="0">t</tspan><tspan x="128.07" y="0">e</tspan></text><path class="cls-5" d="M512.11,299.58a28.16,28.16,0,1,1,3.32-36l10.85-5.22A40.11,40.11,0,1,0,520.55,308V308c4.44-4.6-1.3-13.52-8.44-8.37Z" transform="translate(-409.19 -239.5)"/><path class="cls-6" d="M523.19,254.09l-28.88,29.36L482.86,272h0c-4.62-4.61-11.75,3.62-8,7.35h0l15.93,15.93a5,5,0,0,0,7.09,0l27.52-27.51c3.46-3,3.21-7.42-2.18-13.67Z" transform="translate(-409.19 -239.5)"/></svg>