<svg id="Layer_5" data-name="Layer 5" xmlns="http://www.w3.org/2000/svg" viewBox="0 0 225.21 60.08"><defs><style>.cls-1{font-size:55.22px;font-family:Kessel205W00-Bold;font-weight:700;}.cls-1,.cls-7{fill:#00aaac;}.cls-2{letter-spacing:-0.03em;}.cls-3{letter-spacing:-0.04em;}.cls-4{letter-spacing:-0.02em;}.cls-5{letter-spacing:0em;}.cls-6{fill:#72cbcd;}</style></defs><title>E-Vote</title><text class="cls-1" transform="translate(64.7 48.32) scale(0.96 1)"><tspan class="cls-2">e</tspan><tspan class="cls-3" x="37.5" y="0">v</tspan><tspan x="70.58" y="0">o</tspan><tspan class="cls-4" x="109.95" y="0">t</tspan><tspan class="cls-5" x="128.07" y="0">e</tspan></text><path class="cls-6" d="M92.78,351.74a20.08,20.08,0,1,1,2.36-25.66l7.74-3.72a28.59,28.59,0,1,0-4.08,35.4v-.05c3.16-3.28-.93-9.64-6-6Z" transform="translate(-50.04 -306.01)"/><path class="cls-7" d="M100.68,319.32,80.09,340.24l-8.17-8.16h0c-3.29-3.29-8.37,2.58-5.71,5.24h0l11.35,11.35a3.57,3.57,0,0,0,5.06,0l19.61-19.61c2.47-2.17,2.29-5.29-1.55-9.74Z" transform="translate(-50.04 -306.01)"/></svg>