<svg id="Layer_4" data-name="Layer 4" xmlns="http://www.w3.org/2000/svg" viewBox="0 0 148.64 157.89"><defs><style>.cls-1{fill:#72cbcd;}.cls-2{fill:#00aaac;}</style></defs><title>E-Vote icon</title><path class="cls-1" d="M290.69,180.54a55.44,55.44,0,1,1,6.53-70.85l21.37-10.27a78.95,78.95,0,1,0-11.28,97.74V197c8.74-9-2.57-26.6-16.62-16.47Z" transform="translate(-172.67 -62.27)"/><path class="cls-2" d="M312.5,91l-56.85,57.78L233.1,126.23h0c-9.08-9.08-23.12,7.13-15.79,14.47h0l31.36,31.36a9.87,9.87,0,0,0,14,0l54.16-54.16c6.82-6,6.33-14.6-4.28-26.9Z" transform="translate(-172.67 -62.27)"/></svg>